<svg width="92" height="92" viewBox="0 0 92 92" fill="none" xmlns="http://www.w3.org/2000/svg">
<path d="M0 18.4C0 11.477 3.588 4.232 9.2 0C9.2 3.887 12.374 9.2 18.4 9.2C22.06 9.2 25.5701 10.6539 28.1581 13.2419C30.7461 15.8299 32.2 19.34 32.2 23C32.2 24.7756 31.8366 26.4592 31.2248 28.0186C34.6369 30.7266 37.997 33.4993 41.3034 36.3354L31.7354 45.9034C28.9005 42.5961 26.1277 39.236 23.4186 35.8248C21.8218 36.462 20.1193 36.7928 18.4 36.8C8.234 36.8 0 28.566 0 18.4ZM55.8992 49.9008L62.0678 43.7322C64.9243 45.2028 68.0872 45.9797 71.3 46C76.79 46 82.0551 43.8191 85.9371 39.9371C89.8191 36.0551 92 30.79 92 25.3C92 21.965 91.1352 18.8554 89.7322 16.0678L73.6 32.2L64.4 23L80.5322 6.8678C77.6757 5.39719 74.5128 4.62027 71.3 4.6C65.81 4.6 60.5449 6.78089 56.6629 10.6629C52.7809 14.5449 50.6 19.81 50.6 25.3C50.6 28.635 51.4648 31.7446 52.8678 34.5322L4.6 82.8L13.8 92L45.3008 60.4992C53.9643 69.3881 63.145 77.7578 72.795 85.5646L79.35 90.85L86.25 83.95L80.9646 77.395C73.1578 67.745 64.7881 58.5643 55.8992 49.9008Z" fill="url(#paint0_linear_646_547)"/>
<defs>
<linearGradient id="paint0_linear_646_547" x1="82.8" y1="1.60143e-06" x2="-4.91478" y2="73.2799" gradientUnits="userSpaceOnUse">
<stop stop-color="#03E1FF"/>
<stop offset="1" stop-color="#AB29FF"/>
</linearGradient>
</defs>
</svg>
