<svg width="319" height="287" viewBox="0 0 319 287" fill="none" xmlns="http://www.w3.org/2000/svg">
<path d="M102.587 20.4284C101.883 21.2004 101.458 22.2275 101.458 23.3531C101.458 25.7576 103.406 27.7063 105.81 27.7063H167.62C170.024 27.7063 171.973 25.7576 171.973 23.3531C171.973 20.9487 170.024 19 167.62 19H105.81C104.532 19 103.382 19.5509 102.587 20.4284Z" fill="url(#paint0_linear_637_536)"/>
<path fill-rule="evenodd" clip-rule="evenodd" d="M108.422 126.958C116.114 126.958 122.351 120.721 122.351 113.028C122.351 105.335 116.114 99.0979 108.422 99.0979C100.73 99.0979 94.4932 105.335 94.4932 113.028C94.4932 120.721 100.73 126.958 108.422 126.958ZM117.998 113.028C117.998 118.316 113.71 122.605 108.422 122.605C103.134 122.605 98.846 118.316 98.846 113.028C98.846 107.74 103.134 103.451 108.422 103.451C113.71 103.451 117.998 107.74 117.998 113.028Z" fill="url(#paint1_linear_637_536)"/>
<path fill-rule="evenodd" clip-rule="evenodd" d="M178.067 113.028C178.067 120.721 171.83 126.958 164.138 126.958C156.446 126.958 150.209 120.721 150.209 113.028C150.209 105.335 156.446 99.0979 164.138 99.0979C171.83 99.0979 178.067 105.335 178.067 113.028ZM164.138 122.605C169.426 122.605 173.714 118.316 173.714 113.028C173.714 107.74 169.426 103.451 164.138 103.451C158.85 103.451 154.562 107.74 154.562 113.028C154.562 118.316 158.85 122.605 164.138 122.605Z" fill="url(#paint2_linear_637_536)"/>
<path fill-rule="evenodd" clip-rule="evenodd" d="M42.695 118.252C43.4567 118.252 44.1913 118.121 44.8714 117.879V125.217C44.8714 136.46 49.9451 146.518 57.9298 153.227V156.614C50.9755 164.545 38.5701 183.756 34.4825 208.971C33.0747 217.657 34.6627 224.727 40.369 228.337C45.6195 231.661 52.5432 230.753 58.5555 228.558C64.8228 226.266 71.3928 222.129 76.9698 217.048C79.8807 214.393 82.6012 211.409 84.8865 208.204C94.789 243.794 114.285 268 136.715 268C159.054 268 178.485 243.988 188.425 208.632C190.646 211.676 193.251 214.512 196.032 217.048C201.606 222.129 208.176 226.266 214.447 228.558C220.455 230.753 227.379 231.661 232.63 228.337C238.336 224.727 239.927 217.657 238.516 208.971C234.429 183.756 222.023 164.545 215.069 156.614V152.072C222.295 145.391 226.818 135.833 226.818 125.217V117.498C227.726 117.98 228.763 118.252 229.865 118.252C233.47 118.252 236.394 115.329 236.394 111.722V81.25C236.394 77.6433 233.47 74.7203 229.865 74.7203C228.583 74.7203 227.386 75.091 226.376 75.7303C223.033 50.1046 201.12 30.3182 174.585 30.3182H97.1049C70.7229 30.3182 48.9079 49.8801 45.3713 75.2933C44.5551 74.9243 43.6506 74.7203 42.695 74.7203C39.0903 74.7203 36.1658 77.6433 36.1658 81.25V111.722C36.1658 115.329 39.0903 118.252 42.695 118.252ZM66.6353 158.665C68.0602 159.297 69.5361 159.84 71.0527 160.287L74.5282 161.64C75.97 165.796 77.8812 172.244 79.3298 179.313C79.5577 181.304 79.8127 183.275 80.095 185.226C80.4316 187.54 80.8023 189.825 81.2104 192.077C81.3362 193.634 81.411 195.172 81.4314 196.678C79.4795 201.484 75.7626 206.369 71.1038 210.613L70.4168 211.227C70.0768 211.528 69.7333 211.824 69.3864 212.115C67.4515 208.061 63.3912 204.968 59.035 202.698C54.774 200.479 49.9757 198.912 45.912 197.935C51.353 179.49 60.8407 166.116 65.4315 161.307L66.6353 160.045V158.665ZM205.537 149.55C213.617 144.466 218.983 135.467 218.983 125.217V82.5559C218.983 72.4876 215.633 63.2014 209.985 55.7535C206.972 57.9437 203.153 61.5214 199.416 66.3218C194.59 72.5267 190.261 80.325 188.184 88.8629C192.638 92.5359 195.478 98.0963 195.478 104.322V120.864C195.478 131.923 186.514 140.888 175.455 140.888H97.1049C86.0461 140.888 77.082 131.923 77.082 120.864V104.322C77.082 98.115 79.9045 92.5699 84.3356 88.8969C82.2612 80.3471 77.9288 72.5352 73.0965 66.3218C69.1382 61.234 65.0813 57.5185 61.9935 55.3743C56.1716 62.8852 52.7064 72.3158 52.7064 82.5559V125.217C52.7064 134.712 57.3143 143.134 64.4147 148.365L78.3471 153.784C79.3604 153.893 80.3908 153.948 81.4348 153.948H190.255C192.019 153.948 193.747 153.788 195.423 153.483L205.537 149.55ZM192.547 60.9756C187.517 67.4424 182.814 75.6453 180.233 84.8703C178.703 84.4962 177.101 84.2972 175.455 84.2972H97.1049C95.442 84.2972 93.8267 84.4996 92.2828 84.8822C89.7051 75.6521 84.9987 67.4441 79.9658 60.9756C76.1265 56.0409 71.9063 51.8748 68.033 48.9959C75.8204 42.2417 85.9849 38.1538 97.1049 38.1538H174.585C185.885 38.1538 196.199 42.3761 204.037 49.3292C200.286 52.1927 196.24 56.2279 192.547 60.9756ZM121.195 195.933L120.807 196.017L120.552 196.081C119.75 196.294 118.984 196.6 118.267 196.986C116.808 197.771 115.56 198.894 114.625 200.249C114.846 185.936 116.669 172.651 118.566 163.524H154.514C156.449 172.831 158.313 186.465 158.469 201.103C156.684 197.902 153.263 195.738 149.338 195.738H123.222C122.735 195.738 122.259 195.77 121.793 195.835C121.593 195.862 121.392 195.896 121.195 195.933ZM86.835 163.524H115.9C113.836 173.64 111.904 188.482 111.993 204.191C112.095 221.576 114.669 240.184 122.426 254.617C115.574 250.111 108.83 242.281 102.889 230.838C97.1865 219.854 92.6569 206.245 89.8446 190.895C89.4739 186.554 88.7836 182.144 87.9402 177.958L87.7668 176.353C87.6614 175.346 87.5627 174.334 87.4709 173.316C87.1853 170.104 86.971 166.837 86.835 163.524ZM185.885 174.142C185.582 175.462 185.29 176.813 185.014 178.189C184.807 179.221 184.61 180.267 184.426 181.321C183.678 185.593 183.123 190.009 182.933 194.287C180.097 208.253 175.819 220.67 170.541 230.838C164.444 242.58 157.503 250.519 150.467 254.966C158.37 240.485 160.985 221.716 161.087 204.191C161.176 188.482 159.244 173.64 157.18 163.524H186.595C186.446 167.123 186.208 170.665 185.885 174.142ZM191.608 195.309C191.591 195.77 191.577 196.222 191.571 196.678C192.768 199.628 194.635 202.609 196.971 205.454C197.94 206.629 198.987 207.782 200.103 208.901L200.552 209.343L201.065 209.84C203.235 206.879 206.544 204.522 210.046 202.698C215.695 199.756 222.275 197.965 226.855 197.166C221.38 179.119 212.093 166.05 207.567 161.307L206.363 160.045V158.569L198.47 161.64C197.29 165.043 195.791 169.981 194.495 175.538C193.839 182.364 192.87 188.973 191.608 195.309ZM217.432 220.379C212.767 218.675 207.618 215.573 203.017 211.606C204.806 209.047 207.73 206.848 211.253 205.015C216.718 202.169 223.186 200.431 227.587 199.69C228.525 203.092 229.324 206.658 229.926 210.365C230.633 214.739 230.266 217.367 229.589 218.952C229.117 220.056 228.494 220.653 227.978 220.981C226.264 222.064 222.741 222.319 217.432 220.379ZM43.0759 210.365C43.2221 209.472 43.3785 208.586 43.5452 207.709C43.6812 207 43.824 206.296 43.9702 205.597C44.1131 204.922 44.2627 204.252 44.4191 203.587C44.6674 202.528 44.9292 201.482 45.2047 200.451C49.1222 201.388 53.7538 202.893 57.8277 205.015C60.2116 206.257 62.3234 207.665 63.9931 209.239C65.4689 210.63 66.6013 212.15 67.2713 213.798C64.8092 215.662 62.2519 217.269 59.7457 218.544C58.3276 219.267 56.9266 219.882 55.5663 220.379C50.2614 222.319 46.7383 222.064 45.0244 220.981C43.7662 220.183 41.8721 217.786 43.0759 210.365ZM136.715 259.294C134.886 259.294 133.029 259.057 131.159 258.578C129.414 258.132 127.656 257.478 125.898 256.61C125.558 256.005 125.398 255.447 125.398 254.941V254.599L125.231 254.301C118.882 242.981 115.917 228.691 114.962 214.325C116.873 216.789 119.862 218.374 123.222 218.374H149.338C153.055 218.374 156.32 216.434 158.17 213.511C157.275 228.15 154.317 242.767 147.849 254.301L147.682 254.599V254.941C147.682 255.517 147.475 256.158 147.036 256.859C143.561 258.496 140.089 259.294 136.715 259.294ZM108.422 130.441C118.039 130.441 125.833 122.644 125.833 113.028C125.833 103.412 118.039 95.6154 108.422 95.6154C98.8052 95.6154 91.011 103.412 91.011 113.028C91.011 122.644 98.8052 130.441 108.422 130.441ZM181.549 113.028C181.549 122.644 173.755 130.441 164.138 130.441C154.521 130.441 146.727 122.644 146.727 113.028C146.727 103.412 154.521 95.6154 164.138 95.6154C173.755 95.6154 181.549 103.412 181.549 113.028Z" fill="url(#paint3_linear_637_536)"/>
<defs>
<linearGradient id="paint0_linear_637_536" x1="190.255" y1="23.3531" x2="64.0082" y2="251.449" gradientUnits="userSpaceOnUse">
<stop stop-color="#14CEFF"/>
<stop offset="1" stop-color="#AB29FF"/>
</linearGradient>
<linearGradient id="paint1_linear_637_536" x1="190.255" y1="23.3531" x2="64.0082" y2="251.449" gradientUnits="userSpaceOnUse">
<stop stop-color="#14CEFF"/>
<stop offset="1" stop-color="#AB29FF"/>
</linearGradient>
<linearGradient id="paint2_linear_637_536" x1="190.255" y1="23.3531" x2="64.0082" y2="251.449" gradientUnits="userSpaceOnUse">
<stop stop-color="#14CEFF"/>
<stop offset="1" stop-color="#AB29FF"/>
</linearGradient>
<linearGradient id="paint3_linear_637_536" x1="190.255" y1="23.3531" x2="64.0082" y2="251.449" gradientUnits="userSpaceOnUse">
<stop stop-color="#14CEFF"/>
<stop offset="1" stop-color="#AB29FF"/>
</linearGradient>
</defs>
</svg>
