<svg width="786" height="211" viewBox="0 0 786 211" fill="none" xmlns="http://www.w3.org/2000/svg">
<path d="M57.8805 1.21039C57.2864 1.86458 56.9277 2.73491 56.9277 3.68881C56.9277 5.7263 58.5721 7.37762 60.601 7.37762H112.762C114.791 7.37762 116.436 5.7263 116.436 3.68881C116.436 1.65132 114.791 0 112.762 0H60.601C59.522 0 58.552 0.466865 57.8805 1.21039Z" fill="url(#paint0_linear_652_693)"/>
<path fill-rule="evenodd" clip-rule="evenodd" d="M62.805 91.4825C69.2965 91.4825 74.5597 86.1971 74.5597 79.6783C74.5597 73.1595 69.2965 67.8741 62.805 67.8741C56.3136 67.8741 51.0504 73.1595 51.0504 79.6783C51.0504 86.1971 56.3136 91.4825 62.805 91.4825ZM70.8863 79.6783C70.8863 84.1596 67.2675 87.7937 62.805 87.7937C58.3425 87.7937 54.7237 84.1596 54.7237 79.6783C54.7237 75.197 58.3425 71.5629 62.805 71.5629C67.2675 71.5629 70.8863 75.197 70.8863 79.6783Z" fill="url(#paint1_linear_652_693)"/>
<path fill-rule="evenodd" clip-rule="evenodd" d="M121.578 79.6783C121.578 86.1971 116.315 91.4825 109.824 91.4825C103.332 91.4825 98.069 86.1971 98.069 79.6783C98.069 73.1595 103.332 67.8741 109.824 67.8741C116.315 67.8741 121.578 73.1595 121.578 79.6783ZM109.824 87.7937C114.286 87.7937 117.905 84.1596 117.905 79.6783C117.905 75.197 114.286 71.5629 109.824 71.5629C105.361 71.5629 101.742 75.197 101.742 79.6783C101.742 84.1596 105.361 87.7937 109.824 87.7937Z" fill="url(#paint2_linear_652_693)"/>
<path fill-rule="evenodd" clip-rule="evenodd" d="M7.33773 84.1049C7.98057 84.1049 8.60044 83.9939 9.1744 83.7893V90.007C9.1744 99.5345 13.4561 108.058 20.1944 113.742V116.613C14.3257 123.333 3.85668 139.613 0.407194 160.979C-0.780899 168.339 0.559292 174.331 5.3748 177.39C9.80575 180.207 15.6486 179.438 20.7224 177.577C26.0114 175.635 31.5559 172.129 36.2623 167.824C38.7189 165.574 41.0147 163.045 42.9432 160.329C51.3 190.488 67.7525 211 86.6817 211C105.533 211 121.931 190.652 130.32 160.692C132.194 163.272 134.392 165.675 136.739 167.824C141.443 172.129 146.987 175.635 152.279 177.577C157.35 179.438 163.193 180.207 167.624 177.39C172.44 174.331 173.783 168.339 172.592 160.979C169.142 139.613 158.673 123.333 152.804 116.613V112.764C158.903 107.102 162.72 99.0028 162.72 90.007V83.4666C163.486 83.8743 164.361 84.1049 165.291 84.1049C168.333 84.1049 170.801 81.6279 170.801 78.5717V52.75C170.801 49.6938 168.333 47.2168 165.291 47.2168C164.209 47.2168 163.199 47.5309 162.347 48.0727C159.526 26.3577 141.033 9.59091 118.64 9.59091H53.2544C30.9905 9.59091 12.5808 26.1675 9.59626 47.7024C8.90751 47.3897 8.14414 47.2168 7.33773 47.2168C4.29576 47.2168 1.82774 49.6938 1.82774 52.75V78.5717C1.82774 81.6279 4.29576 84.1049 7.33773 84.1049ZM27.541 118.35C28.7435 118.886 29.989 119.346 31.2689 119.725L34.2018 120.872C35.4186 124.394 37.0314 129.858 38.254 135.848C38.4462 137.535 38.6615 139.205 38.8997 140.858C39.1838 142.819 39.4966 144.756 39.841 146.663C39.9471 147.983 40.0103 149.286 40.0275 150.563C38.3802 154.635 35.2436 158.774 31.3119 162.371L30.7323 162.891C30.4453 163.146 30.1554 163.397 29.8627 163.643C28.2298 160.208 24.8033 157.587 21.1271 155.664C17.5312 153.783 13.482 152.456 10.0526 151.627C14.6442 135.998 22.6509 124.665 26.5251 120.59L27.541 119.52V118.35ZM144.76 110.627C151.579 106.318 156.108 98.693 156.108 90.007V53.8566C156.108 45.3248 153.281 37.4558 148.514 31.1445C145.971 33.0004 142.749 36.0322 139.595 40.1C135.523 45.358 131.869 51.9661 130.116 59.2011C133.875 62.3135 136.272 67.0254 136.272 72.3007V86.3182C136.272 95.6901 128.707 103.287 119.374 103.287H53.2544C43.9218 103.287 36.357 95.6901 36.357 86.3182V72.3007C36.357 67.0413 38.739 62.3423 42.4783 59.2299C40.7277 51.9849 37.0716 45.3652 32.9936 40.1C29.6532 35.7887 26.2296 32.6402 23.6238 30.8232C18.7107 37.1878 15.7864 45.1793 15.7864 53.8566V90.007C15.7864 98.0532 19.675 105.19 25.6671 109.623L37.4246 114.215C38.2798 114.307 39.1493 114.353 40.0304 114.353H131.864C133.353 114.353 134.811 114.218 136.226 113.96L144.76 110.627ZM133.798 35.5696C129.553 41.0496 125.585 48.0007 123.406 55.8178C122.115 55.5008 120.763 55.3322 119.374 55.3322H53.2544C51.851 55.3322 50.4879 55.5036 49.185 55.8278C47.0097 48.0064 43.0379 41.051 38.7906 35.5696C35.5506 31.388 31.9892 27.8577 28.7205 25.4182C35.2923 19.6948 43.8701 16.2308 53.2544 16.2308H118.64C128.176 16.2308 136.88 19.8086 143.495 25.7006C140.329 28.1272 136.914 31.5465 133.798 35.5696ZM73.5839 149.931L73.2568 150.002L73.0416 150.057C72.3643 150.237 71.7186 150.496 71.1131 150.823C69.8819 151.489 68.8287 152.44 68.0395 153.589C68.226 141.46 69.7643 130.202 71.3656 122.469H101.702C103.335 130.355 104.908 141.908 105.04 154.312C103.533 151.6 100.646 149.766 97.3343 149.766H75.2943C74.884 149.766 74.4822 149.793 74.089 149.848C73.9197 149.871 73.7504 149.9 73.5839 149.931ZM44.5876 122.469H69.1157C67.3737 131.041 65.7437 143.617 65.8183 156.929C65.9044 171.661 68.0768 187.429 74.6228 199.66C68.8402 195.841 63.1494 189.206 58.1359 179.51C53.3232 170.201 49.5007 158.669 47.1274 145.662C46.8146 141.983 46.232 138.247 45.5203 134.699L45.3739 133.339C45.285 132.486 45.2017 131.629 45.1242 130.765C44.8832 128.044 44.7024 125.275 44.5876 122.469ZM128.176 131.466C127.921 132.584 127.674 133.729 127.441 134.895C127.266 135.77 127.1 136.656 126.945 137.549C126.313 141.169 125.846 144.911 125.685 148.537C123.292 160.371 119.681 170.893 115.227 179.51C110.082 189.459 104.225 196.187 98.2871 199.955C104.956 187.684 107.163 171.779 107.249 156.929C107.324 143.617 105.694 131.041 103.952 122.469H128.776C128.649 125.518 128.449 128.519 128.176 131.466ZM133.006 149.403C132.991 149.793 132.98 150.176 132.974 150.563C133.984 153.063 135.56 155.589 137.531 157.999C138.349 158.995 139.233 159.972 140.175 160.92L140.553 161.295L140.987 161.715C142.818 159.207 145.61 157.21 148.566 155.664C153.333 153.171 158.886 151.653 162.751 150.976C158.131 135.683 150.293 124.608 146.474 120.59L145.458 119.52V118.27L138.797 120.872C137.801 123.755 136.536 127.94 135.442 132.649C134.888 138.433 134.07 144.034 133.006 149.403ZM154.799 170.646C150.862 169.203 146.517 166.574 142.634 163.213C144.143 161.044 146.611 159.181 149.585 157.628C154.196 155.215 159.655 153.743 163.368 153.114C164.16 155.998 164.835 159.019 165.343 162.161C165.939 165.867 165.63 168.095 165.058 169.437C164.66 170.373 164.134 170.878 163.698 171.157C162.252 172.074 159.279 172.291 154.799 170.646ZM7.65915 162.161C7.78255 161.404 7.91456 160.653 8.05518 159.91C8.16997 159.309 8.2905 158.713 8.4139 158.12C8.53444 157.548 8.66071 156.981 8.79272 156.417C9.00221 155.519 9.22319 154.633 9.45564 153.76C12.7616 154.554 16.6703 155.829 20.1083 157.628C22.12 158.679 23.9022 159.872 25.3112 161.207C26.5567 162.385 27.5123 163.674 28.0777 165.07C26 166.649 23.8419 168.011 21.7269 169.092C20.5302 169.704 19.3478 170.226 18.1999 170.646C13.723 172.291 10.7499 172.074 9.30354 171.157C8.24172 170.481 6.64325 168.449 7.65915 162.161ZM86.6817 203.622C85.1377 203.622 83.5708 203.422 81.9924 203.016C80.5202 202.638 79.0365 202.083 77.5529 201.349C77.2659 200.836 77.131 200.363 77.131 199.934V199.644L76.9904 199.392C71.6325 189.799 69.13 177.69 68.3236 165.517C69.9364 167.605 72.459 168.948 75.2943 168.948H97.3343C100.471 168.948 103.226 167.303 104.787 164.826C104.032 177.232 101.536 189.618 96.0773 199.392L95.9367 199.644V199.934C95.9367 200.422 95.7617 200.965 95.3915 201.559C92.4585 202.947 89.5285 203.622 86.6817 203.622ZM62.805 94.4336C70.9208 94.4336 77.4983 87.8268 77.4983 79.6783C77.4983 71.5298 70.9208 64.9231 62.805 64.9231C54.6893 64.9231 48.1117 71.5298 48.1117 79.6783C48.1117 87.8268 54.6893 94.4336 62.805 94.4336ZM124.517 79.6783C124.517 87.8268 117.939 94.4336 109.824 94.4336C101.708 94.4336 95.1303 87.8268 95.1303 79.6783C95.1303 71.5298 101.708 64.9231 109.824 64.9231C117.939 64.9231 124.517 71.5298 124.517 79.6783Z" fill="url(#paint3_linear_652_693)"/>
<path d="M221 157.685C219.343 157.685 218 156.342 218 154.685V56.9032C218 55.2464 219.343 53.9032 221 53.9032H232.825C233.846 53.9032 234.798 54.4229 235.349 55.2824L273.064 114.025C274.043 115.55 272.948 117.554 271.136 117.554V117.554C269.326 117.554 268.231 115.554 269.206 114.029L306.785 55.2866C307.336 54.4247 308.289 53.9032 309.312 53.9032H321.281C322.938 53.9032 324.281 55.2464 324.281 56.9032V154.685C324.281 156.342 322.938 157.685 321.281 157.685H304.202C302.545 157.685 301.202 156.342 301.202 154.685V94.8904C301.202 93.8582 302.172 93.1008 303.174 93.3511V93.3511C304.227 93.6144 304.71 94.8339 304.124 95.7475L279.596 133.962C279.045 134.821 278.093 135.341 277.072 135.341H265.067C264.043 135.341 263.089 134.819 262.538 133.955L238.101 95.67C237.539 94.7902 238 93.6184 239.01 93.3565V93.3565C239.983 93.1043 240.932 93.8386 240.932 94.8435V154.685C240.932 156.342 239.589 157.685 237.932 157.685H221Z" fill="white"/>
<path d="M377.407 159.302C369.665 159.302 362.756 157.734 356.68 154.598C350.702 151.364 345.998 146.905 342.568 141.221C339.138 135.537 337.423 129.118 337.423 121.964C337.423 114.81 339.089 108.44 342.421 102.854C345.851 97.1702 350.457 92.7112 356.239 89.4772C362.021 86.2432 368.538 84.6262 375.79 84.6262C382.846 84.6262 389.069 86.1452 394.459 89.1832C399.849 92.2212 404.063 96.4352 407.101 101.825C410.237 107.215 411.805 113.389 411.805 120.347C411.805 121.621 411.707 122.993 411.511 124.463C411.457 125.212 411.36 126.033 411.219 126.927C410.999 128.326 409.763 129.317 408.347 129.32L352.19 129.454C350.53 129.458 349.183 128.114 349.183 126.454V117.018C349.183 115.364 350.521 114.022 352.174 114.018L393.684 113.901C395.933 113.894 396.821 116.812 394.95 118.06V118.06C393.461 119.052 391.447 118.01 391.21 116.237C390.9 113.921 390.366 111.91 389.608 110.204C388.432 107.46 386.668 105.402 384.316 104.03C382.062 102.56 379.269 101.825 375.937 101.825C372.409 101.825 369.322 102.658 366.676 104.324C364.128 105.892 362.119 108.146 360.649 111.086C359.277 114.026 358.591 117.603 358.591 121.817C358.591 126.031 359.326 129.657 360.796 132.695C362.364 135.635 364.52 137.938 367.264 139.604C370.106 141.172 373.438 141.956 377.26 141.956C380.788 141.956 383.973 141.368 386.815 140.192C388.71 139.342 390.454 138.231 392.044 136.858C393.355 135.726 395.348 135.643 396.573 136.867L404.695 144.99C405.804 146.098 405.882 147.885 404.77 148.99C401.641 152.104 398.007 154.512 393.871 156.215C388.873 158.273 383.385 159.302 377.407 159.302Z" fill="white"/>
<path d="M425.661 157.685C424.004 157.685 422.661 156.342 422.661 154.685V89.2432C422.661 87.5864 424.004 86.2432 425.661 86.2432H442.152C443.809 86.2432 445.152 87.5864 445.152 89.2432V154.685C445.152 156.342 443.809 157.685 442.152 157.685H425.661ZM471.378 157.685C469.721 157.685 468.378 156.342 468.378 154.685V115.937C468.378 112.311 467.251 109.518 464.997 107.558C462.841 105.5 460.146 104.471 456.912 104.471C454.658 104.471 452.649 104.961 450.885 105.941C449.121 106.823 447.7 108.097 446.622 109.763C446.32 110.276 446.065 110.826 445.856 111.414C445.13 113.455 442.925 114.956 440.942 114.082L438.269 112.904C437.181 112.425 436.467 111.347 436.529 110.159C436.781 105.31 437.99 101.111 440.154 97.5622C442.604 93.4462 445.936 90.3102 450.15 88.1542C454.364 85.9002 459.117 84.7732 464.409 84.7732C469.407 84.7732 473.866 85.9002 477.786 88.1542C481.804 90.4082 484.989 93.5442 487.341 97.5622C489.693 101.58 490.869 106.382 490.869 111.968V154.685C490.869 156.342 489.526 157.685 487.869 157.685H471.378ZM517.095 157.685C515.438 157.685 514.095 156.342 514.095 154.685V115.937C514.095 112.311 512.968 109.518 510.714 107.558C508.558 105.5 505.863 104.471 502.629 104.471C500.375 104.471 498.366 104.961 496.602 105.941C494.838 106.823 493.417 108.097 492.339 109.763C491.853 110.589 491.488 111.511 491.243 112.529C490.818 114.296 489.265 115.719 487.463 115.473L480.613 114.539C479.09 114.331 477.957 113.004 478.106 111.474C478.587 106.545 479.95 102.25 482.196 98.5912C484.94 94.1812 488.517 90.8002 492.927 88.4482C497.435 85.9982 502.482 84.7732 508.068 84.7732C513.556 84.7732 518.407 85.9492 522.621 88.3012C526.933 90.5552 530.314 93.8382 532.764 98.1502C535.312 102.364 536.586 107.46 536.586 113.438V154.685C536.586 156.342 535.243 157.685 533.586 157.685H517.095Z" fill="white"/>
<path d="M586.279 159.302C578.537 159.302 571.628 157.734 565.552 154.598C559.574 151.364 554.87 146.905 551.44 141.221C548.01 135.537 546.295 129.118 546.295 121.964C546.295 114.81 547.961 108.44 551.293 102.854C554.723 97.1702 559.329 92.7112 565.111 89.4772C570.893 86.2432 577.41 84.6262 584.662 84.6262C591.718 84.6262 597.941 86.1452 603.331 89.1832C608.721 92.2212 612.935 96.4352 615.973 101.825C619.109 107.215 620.677 113.389 620.677 120.347C620.677 121.621 620.579 122.993 620.383 124.463C620.329 125.212 620.232 126.033 620.091 126.927C619.871 128.326 618.635 129.317 617.219 129.32L561.062 129.454C559.402 129.458 558.055 128.114 558.055 126.454V117.018C558.055 115.364 559.393 114.022 561.046 114.018L602.556 113.901C604.805 113.894 605.693 116.812 603.822 118.06V118.06C602.333 119.052 600.319 118.01 600.082 116.237C599.772 113.921 599.238 111.91 598.48 110.204C597.304 107.46 595.54 105.402 593.188 104.03C590.934 102.56 588.141 101.825 584.809 101.825C581.281 101.825 578.194 102.658 575.548 104.324C573 105.892 570.991 108.146 569.521 111.086C568.149 114.026 567.463 117.603 567.463 121.817C567.463 126.031 568.198 129.657 569.668 132.695C571.236 135.635 573.392 137.938 576.136 139.604C578.978 141.172 582.31 141.956 586.132 141.956C589.66 141.956 592.845 141.368 595.687 140.192C597.583 139.342 599.326 138.231 600.916 136.858C602.227 135.726 604.22 135.643 605.445 136.867L613.567 144.99C614.676 146.098 614.754 147.885 613.642 148.99C610.513 152.104 606.879 154.512 602.743 156.215C597.745 158.273 592.257 159.302 586.279 159.302Z" fill="white"/>
<path d="M654.047 157.685C651.928 157.685 650.477 155.549 651.258 153.579L690.039 55.7972C690.492 54.654 691.597 53.9032 692.827 53.9032H709.618C710.852 53.9032 711.96 54.6588 712.411 55.8075L750.776 153.59C751.548 155.557 750.097 157.685 747.983 157.685H730.086C728.823 157.685 727.695 156.894 727.265 155.706L698.239 75.4734C697.547 73.5616 698.963 71.5432 700.996 71.5432V71.5432C703.035 71.5432 704.452 73.572 703.749 75.4858L674.312 155.719C673.879 156.9 672.754 157.685 671.496 157.685H654.047ZM676.003 138.869C674.346 138.869 673.003 137.526 673.003 135.869V123.053C673.003 121.396 674.346 120.053 676.003 120.053H726.598C728.255 120.053 729.598 121.396 729.598 123.053V135.869C729.598 137.526 728.255 138.869 726.598 138.869H676.003Z" fill="white"/>
<path d="M765.455 157.685C763.798 157.685 762.455 156.342 762.455 154.685V89.2432C762.455 87.5864 763.798 86.2432 765.455 86.2432H781.946C783.603 86.2432 784.946 87.5864 784.946 89.2432V154.685C784.946 156.342 783.603 157.685 781.946 157.685H765.455ZM773.774 76.3942C770.246 76.3942 767.306 75.2182 764.954 72.8662C762.7 70.4162 761.573 67.4762 761.573 64.0462C761.573 60.5182 762.7 57.5782 764.954 55.2262C767.306 52.8742 770.246 51.6982 773.774 51.6982C777.302 51.6982 780.193 52.8742 782.447 55.2262C784.701 57.5782 785.828 60.5182 785.828 64.0462C785.828 67.4762 784.701 70.4162 782.447 72.8662C780.193 75.2182 777.302 76.3942 773.774 76.3942Z" fill="white"/>
<defs>
<linearGradient id="paint0_linear_652_693" x1="131.864" y1="3.68881" x2="24.6499" y2="196.6" gradientUnits="userSpaceOnUse">
<stop stop-color="#14CEFF"/>
<stop offset="1" stop-color="#AB29FF"/>
</linearGradient>
<linearGradient id="paint1_linear_652_693" x1="131.864" y1="3.68881" x2="24.6499" y2="196.6" gradientUnits="userSpaceOnUse">
<stop stop-color="#14CEFF"/>
<stop offset="1" stop-color="#AB29FF"/>
</linearGradient>
<linearGradient id="paint2_linear_652_693" x1="131.864" y1="3.68881" x2="24.6499" y2="196.6" gradientUnits="userSpaceOnUse">
<stop stop-color="#14CEFF"/>
<stop offset="1" stop-color="#AB29FF"/>
</linearGradient>
<linearGradient id="paint3_linear_652_693" x1="131.864" y1="3.68881" x2="24.6499" y2="196.6" gradientUnits="userSpaceOnUse">
<stop stop-color="#14CEFF"/>
<stop offset="1" stop-color="#AB29FF"/>
</linearGradient>
</defs>
</svg>
