<svg width="94" height="108" viewBox="0 0 94 108" fill="none" xmlns="http://www.w3.org/2000/svg">
<path d="M68.8711 32.1289C66.8671 30.1255 64.1494 29 61.3156 29C58.4819 29 55.7642 30.1255 53.7602 32.1289L52.1038 33.7818L57.1407 38.8187L58.7972 37.1659C59.469 36.517 60.3688 36.1579 61.3028 36.166C62.2368 36.1742 63.1303 36.5488 63.7907 37.2093C64.4512 37.8697 64.8258 38.7632 64.834 39.6972C64.8421 40.6312 64.483 41.531 63.8341 42.2028L52.1038 53.9332L57.1407 58.9702L68.8711 47.2398C70.8745 45.2358 72 42.5181 72 39.6844C72 36.8506 70.8745 34.1329 68.8711 32.1289ZM35.3364 70.7005C34.6646 71.3494 33.7648 71.7085 32.8308 71.7004C31.8968 71.6922 31.0033 71.3176 30.3429 70.6571C29.6824 69.9967 29.3078 69.1032 29.2997 68.1692C29.2915 67.2352 29.6506 66.3354 30.2995 65.6636L42.0298 53.9332L36.9929 48.8962L25.2625 60.6266C24.2418 61.6124 23.4277 62.7916 22.8676 64.0954C22.3075 65.3992 22.0127 66.8015 22.0004 68.2205C21.9881 69.6395 22.2585 71.0467 22.7958 72.36C23.3331 73.6734 24.1266 74.8666 25.13 75.87C26.1334 76.8734 27.3266 77.6669 28.64 78.2042C29.9533 78.7415 31.3605 79.0119 32.7795 78.9996C34.1985 78.9873 35.6008 78.6925 36.9046 78.1324C38.2084 77.5723 39.3876 76.7582 40.3734 75.7375L42.0298 74.0846L36.9929 69.0477L35.3364 70.7005ZM40.3734 32.1325C38.3497 30.233 35.6664 29.1953 32.8912 29.2391C30.1161 29.2828 27.4668 30.4046 25.504 32.3669C23.5412 34.3293 22.4189 36.9783 22.3745 39.7534C22.33 42.5285 23.3671 45.2121 25.2661 47.2362L26.9189 48.8927L31.9559 43.8557L30.303 42.1993C29.6541 41.5274 29.2951 40.6276 29.3032 39.6936C29.3113 38.7596 29.686 37.8662 30.3464 37.2057C31.0069 36.5452 31.9003 36.1706 32.8343 36.1625C33.7683 36.1544 34.6682 36.5134 35.34 37.1623L47.0668 48.8962L52.1038 43.8593L40.3734 32.1325Z" fill="url(#paint0_linear_646_554)"/>
<path d="M68.9842 60.6759L67.3225 59L62.2587 64.0963L63.9204 65.7722C64.5727 66.452 64.9337 67.3624 64.9255 68.3074C64.9174 69.2524 64.5407 70.1564 63.8768 70.8246C63.2128 71.4929 62.3146 71.8719 61.3756 71.8801C60.4366 71.8883 59.532 71.525 58.8566 70.8685L47.0638 59L42 64.0963L53.7928 75.9648C55.8191 77.9344 58.5329 79.0242 61.3498 78.9996C64.1667 78.975 66.8614 77.8378 68.8533 75.8331C70.8452 73.8284 71.9751 71.1165 71.9996 68.2815C72.0241 65.4465 70.9412 62.7152 68.9842 60.6759Z" fill="url(#paint1_linear_646_554)"/>
<path d="M47 108C46.3598 108 45.7309 107.832 45.1778 107.51L1.79323 82.3107C1.24739 81.9935 0.794573 81.5394 0.479931 80.9937C0.165289 80.4479 -0.00018711 79.8296 1.58772e-07 79.2003V28.8008C-0.00018711 28.1715 0.165289 27.5532 0.479931 27.0074C0.794573 26.4617 1.24739 26.0076 1.79323 25.6904L45.1778 0.490662C45.7309 0.169326 46.3597 0 47 0C47.6403 0 48.2691 0.169326 48.8222 0.490662L92.2068 25.6904L88.5625 31.9112L47 7.76979L7.23077 30.8672V77.1339L47 100.235L86.7692 77.1339V50.4006H94V79.2003C94.0002 79.8296 93.8347 80.4479 93.5201 80.9937C93.2054 81.5394 92.7526 81.9935 92.2068 82.3107L48.8222 107.51C48.2691 107.832 47.6402 108 47 108Z" fill="url(#paint2_linear_646_554)"/>
<defs>
<linearGradient id="paint0_linear_646_554" x1="67" y1="29" x2="19.3289" y2="68.826" gradientUnits="userSpaceOnUse">
<stop stop-color="#03E1FF"/>
<stop offset="1" stop-color="#AB29FF"/>
</linearGradient>
<linearGradient id="paint1_linear_646_554" x1="69" y1="59" x2="50.1056" y2="82.6775" gradientUnits="userSpaceOnUse">
<stop stop-color="#03E1FF"/>
<stop offset="1" stop-color="#AB29FF"/>
</linearGradient>
<linearGradient id="paint2_linear_646_554" x1="84.6" y1="1.87994e-06" x2="-14.9422" y2="72.3808" gradientUnits="userSpaceOnUse">
<stop stop-color="#03E1FF"/>
<stop offset="1" stop-color="#AB29FF"/>
</linearGradient>
</defs>
</svg>
