<svg width="164" height="164" viewBox="0 0 164 164" fill="none" xmlns="http://www.w3.org/2000/svg">
<rect width="164" height="164" rx="26" fill="white" fill-opacity="0.2"/>
<path fill-rule="evenodd" clip-rule="evenodd" d="M112.893 49.0119C113.953 48.5656 115.114 48.4116 116.254 48.5661C117.395 48.7206 118.473 49.1779 119.376 49.8904C120.28 50.6029 120.976 51.5445 121.392 52.6173C121.808 53.6901 121.929 54.8548 121.742 55.9902L112.009 115.031C111.065 120.726 104.816 123.992 99.5929 121.155C95.224 118.782 88.735 115.125 82.8983 111.31C79.98 109.4 71.0405 103.284 72.1391 98.9326C73.0833 95.2117 88.1041 81.2295 96.6875 72.9165C100.056 69.6506 98.52 67.7665 94.5416 70.7707C84.6622 78.2296 68.8002 89.5725 63.5558 92.7655C58.9294 95.5808 56.5175 96.0615 53.6335 95.5808C48.3719 94.7053 43.4922 93.3492 39.5096 91.6969C34.1278 89.4652 34.3896 82.0664 39.5053 79.9119L112.893 49.0119Z" fill="url(#paint0_linear_636_535)"/>
<defs>
<linearGradient id="paint0_linear_636_535" x1="113.202" y1="48.5078" x2="41.8253" y2="118.31" gradientUnits="userSpaceOnUse">
<stop stop-color="#03E1FF"/>
<stop offset="1" stop-color="#AB29FF"/>
</linearGradient>
</defs>
</svg>
