<svg width="139" height="139" viewBox="0 0 139 139" fill="none" xmlns="http://www.w3.org/2000/svg">
<g clip-path="url(#clip0_648_555)">
<path d="M68.9975 -0.165462C68.7714 -0.124635 68.5482 -0.0692762 68.3292 0.000268956C67.1222 0.270793 66.0464 0.951475 65.285 1.92632C64.5237 2.90117 64.1239 4.10986 64.1538 5.34642V10.6926H16.0385C11.7848 10.6926 7.70535 12.3823 4.69756 15.3901C1.68976 18.3979 0 22.4774 0 26.731L0 96.231C0 105.084 7.18523 112.27 16.0385 112.27H64.1538V114.274L35.0815 128.811C33.7969 129.431 32.8113 130.536 32.3416 131.883C31.8718 133.23 31.9565 134.708 32.5768 135.993C33.1971 137.278 34.3023 138.263 35.6493 138.733C36.9963 139.203 38.4747 139.118 39.7593 138.498L64.1538 126.303V128.308C64.1538 129.726 64.7171 131.086 65.7197 132.088C66.7223 133.091 68.0821 133.654 69.5 133.654C70.9179 133.654 72.2777 133.091 73.2803 132.088C74.2829 131.086 74.8462 129.726 74.8462 128.308V126.303L99.2407 138.498C100.525 139.118 102.004 139.203 103.351 138.733C104.698 138.263 105.803 137.278 106.423 135.993C107.044 134.708 107.128 133.23 106.658 131.883C106.189 130.536 105.203 129.431 103.919 128.811L74.8462 114.274V112.27H122.962C131.815 112.27 139 105.084 139 96.231V26.731C139 22.4774 137.31 18.3979 134.302 15.3901C131.295 12.3823 127.215 10.6926 122.962 10.6926H74.8462V5.34642C74.8731 4.58619 74.7376 3.82895 74.4485 3.12529C74.1595 2.42163 73.7236 1.78776 73.17 1.26603C72.6164 0.744305 71.9578 0.346729 71.2382 0.0998699C70.5187 -0.14699 69.7548 -0.237448 68.9975 -0.165462ZM10.6923 26.731H128.308V96.231H10.6923V26.731ZM111.601 32.0772C110.403 32.2059 109.284 32.7353 108.425 33.5795L90.8846 51.1255L78.69 38.9203C78.106 38.321 77.3895 37.8672 76.5982 37.5954C75.8068 37.3236 74.9627 37.2413 74.1337 37.3552C73.3047 37.4691 72.5141 37.776 71.8253 38.2511C71.1366 38.7263 70.569 39.3565 70.1683 40.0911L54.2955 67.8269L47.7786 51.4517C47.4621 50.6062 46.9367 49.8546 46.2513 49.267C45.5659 48.6794 44.7429 48.2749 43.859 48.0913C42.9751 47.9077 42.0591 47.9509 41.1964 48.2169C40.3337 48.4829 39.5524 48.9631 38.9253 49.6126L22.8869 65.651C22.3814 66.1562 21.9804 66.7559 21.7066 67.4161C21.4329 68.0762 21.2919 68.7838 21.2917 69.4984C21.2914 70.213 21.432 70.9207 21.7052 71.581C21.9784 72.2413 22.3791 72.8413 22.8842 73.3468C23.3893 73.8523 23.9891 74.2534 24.6492 74.5271C25.3094 74.8008 26.0169 74.9418 26.7316 74.942C27.4462 74.9423 28.1538 74.8018 28.8142 74.5285C29.4745 74.2553 30.0745 73.8546 30.58 73.3495L40.7698 63.1597L48.4575 82.2027C48.8204 83.1578 49.4493 83.9889 50.2698 84.5976C51.0903 85.2064 52.068 85.5672 53.0873 85.6376C54.1065 85.7079 55.1245 85.4847 56.0208 84.9944C56.9172 84.5041 57.6542 83.7672 58.1448 82.871L76.0223 51.6281L87.0461 62.6572C87.5446 63.173 88.1419 63.5831 88.8023 63.8632C89.4626 64.1434 90.1726 64.2877 90.89 64.2877C91.6073 64.2877 92.3173 64.1434 92.9777 63.8632C93.638 63.5831 94.2353 63.173 94.7338 62.6572L116.118 41.2726C116.963 40.4907 117.533 39.4572 117.743 38.3257C117.953 37.1942 117.792 36.0251 117.285 34.9922C116.777 33.9592 115.95 33.1176 114.926 32.5924C113.902 32.0672 112.736 31.8866 111.601 32.0772Z" fill="url(#paint0_linear_648_555)"/>
</g>
<defs>
<linearGradient id="paint0_linear_648_555" x1="125.1" y1="-0.189451" x2="-7.59969" y2="110.495" gradientUnits="userSpaceOnUse">
<stop stop-color="#03E1FF"/>
<stop offset="1" stop-color="#AB29FF"/>
</linearGradient>
<clipPath id="clip0_648_555">
<rect width="139" height="139" fill="white"/>
</clipPath>
</defs>
</svg>
