<svg width="164" height="164" viewBox="0 0 164 164" fill="none" xmlns="http://www.w3.org/2000/svg">
<rect width="164" height="164" rx="26" fill="white" fill-opacity="0.2"/>
<path d="M128 53.7506C124.552 55.2647 120.9 56.2575 117.162 56.6967C121.085 54.3807 124.035 50.7079 125.461 46.3645C121.744 48.5398 117.69 50.0719 113.469 50.897C111.691 49.0248 109.553 47.5364 107.184 46.5226C104.815 45.5087 102.266 44.9907 99.6916 45.0001C89.268 45.0001 80.8178 53.3714 80.8178 63.6851C80.8178 65.1466 80.9834 66.5757 81.3054 67.9401C73.8285 67.5825 66.5077 65.6618 59.8104 62.3005C53.113 58.9392 47.1861 54.2112 42.4078 48.418C40.7326 51.2596 39.8521 54.5035 39.8594 57.8067C39.8626 60.8961 40.6314 63.9359 42.0963 66.6515C43.5613 69.3671 45.6761 71.673 48.2498 73.3606C45.2574 73.2634 42.3297 72.4602 39.703 71.0157V71.2469C39.703 80.3027 46.212 87.8553 54.837 89.5758C53.216 90.0082 51.5461 90.2274 49.869 90.2279C48.65 90.2279 47.4678 90.1123 46.3132 89.881C47.5464 93.6177 49.9063 96.8754 53.0652 99.2019C56.224 101.528 60.0251 102.808 63.9404 102.863C57.2247 108.064 48.9804 110.874 40.5034 110.851C38.9762 110.851 37.4766 110.758 36 110.592C44.6538 116.099 54.6879 119.015 64.9294 119C99.6456 119 118.625 90.5239 118.625 65.8311L118.561 63.4122C122.263 60.7929 125.461 57.5193 128 53.7506Z" fill="url(#paint0_linear_636_534)"/>
<defs>
<linearGradient id="paint0_linear_636_534" x1="118.8" y1="45" x2="47.1548" y2="119.414" gradientUnits="userSpaceOnUse">
<stop stop-color="#03E1FF"/>
<stop offset="1" stop-color="#AB29FF"/>
</linearGradient>
</defs>
</svg>
