<svg width="118" height="87" viewBox="0 0 118 87" fill="none" xmlns="http://www.w3.org/2000/svg">
<path d="M16.5364 75.4062C13.8914 75.4062 11.6834 74.5188 9.91237 72.744C8.13754 70.973 7.25012 68.7631 7.25012 66.1142V9.93675C7.25012 7.29175 8.13754 5.08375 9.91237 3.31275C11.6872 1.54175 13.8952 0.65625 16.5364 0.65625H101.464C104.109 0.65625 106.317 1.54175 108.088 3.31275C109.863 5.08758 110.75 7.2975 110.75 9.9425V66.12C110.75 68.765 109.865 70.973 108.094 72.744C106.323 74.515 104.113 75.4024 101.464 75.4062H16.5364ZM0.171875 86.9062V81.1562H117.828V86.9062H0.171875Z" fill="url(#paint0_linear_646_553)"/>
<defs>
<linearGradient id="paint0_linear_646_553" x1="106.063" y1="0.656252" x2="23.2061" y2="95.0832" gradientUnits="userSpaceOnUse">
<stop stop-color="#03E1FF"/>
<stop offset="1" stop-color="#AB29FF"/>
</linearGradient>
</defs>
</svg>
